# xmcd CD database file
#
# Track frame offsets:
#	150
#	20025
#	37725
#	57400
#	74683
#	90255
#	107428
#	125228
#	144705
#	161888
#
# Disc length: 2415 seconds
#
# Revision: 0
# Processed by: cddbd v1.5.1PL0 Copyright (c) Steve Scherf et al.
# Submitted via: CDex 1.51
#
DISCID=8d096d0a
DTITLE=Fruko y sus Tesos - The Godfather of Salsa
DYEAR=1990
DGENRE=Salsa
TTITLE0=Marina Marinera
TTITLE1=Sed, Ansiedad Y Hambre
TTITLE2=La Carcel Es Para Los Pobres
TTITLE3=De Corazon A Corazon
TTITLE4=La Cenicienta
TTITLE5=No Tiene Billete
TTITLE6=Tenguere Que Tengue
TTITLE7=San Antonio
TTITLE8=Amor Bajo El Sol
TTITLE9=Tu Gozaras
EXTD=YEAR: 1990
EXTT0=
EXTT1=
EXTT2=
EXTT3=
EXTT4=
EXTT5=
EXTT6=
EXTT7=
EXTT8=
EXTT9=
PLAYORDER=
